<?xml version="1.0" encoding="utf-8"?>
<!-- Generator: Adobe Illustrator 15.1.0, SVG Export Plug-In . SVG Version: 6.00 Build 0)  -->
<!DOCTYPE svg PUBLIC "-//W3C//DTD SVG 1.1//EN" "http://www.w3.org/Graphics/SVG/1.1/DTD/svg11.dtd">
<svg version="1.1" id="Layer_1" xmlns="http://www.w3.org/2000/svg" xmlns:xlink="http://www.w3.org/1999/xlink" x="0px" y="0px"
	 width="100px" height="100px" viewBox="0 0 100 100" enable-background="new 0 0 100 100" xml:space="preserve">
<path d="M68.736,54.451c0-1.057,0-2.127,0-3.203H80.33h1.066c1.77,0,3.203-1.436,3.203-3.203V4.27V3.203
	C84.6,1.433,83.164,0,81.396,0H18.765c-1.771,0-3.203,1.434-3.203,3.203V4.27v43.775c0,1.769,1.433,3.203,3.203,3.203h1.067h43.682
	c0,1.078,0,2.152,0,3.203h-4.447v1.064c0,0.59-0.478,1.068-1.067,1.068h-12.81c-0.592,0-1.068-0.48-1.068-1.068v-1.064H2.75v2.135
	c0,0,0,3.203,3.203,3.203h57.561c0,1.717,0,3.199,0,4.291c0,6.797,0.327,14.35,2.938,14.35c2.61,0,2.284-6.797,2.284-14.35
	c0-1.154,0-2.627,0-4.291h25.473c3.203,0,3.203-3.203,3.203-3.203v-2.135H68.736z M19.833,46.978V4.27H80.33v42.708H68.736
	c0-2.98,0-5.742,0-7.824H69.7l-0.999-8.438c1.754-0.736,2.805-2.354,3.054-4.024c0.752-5.052-2.301-5.747-2.456-7.941
	c-0.078-1.115,0.396-2.392,1.325-3.499c0.955-1.146,2.173-2.329,2.173-2.329s-3.371-0.092-5.286,0.532
	c-3.391,1.108-6.577,4.299-7.399,7.845c-1.008,4.351-0.082,7.825,3.438,9.223l-1.022,8.635h0.988c0,2.084,0,4.852,0,7.822
	L19.833,46.978L19.833,46.978z"/>
<g>
	<path fill="#FFFFFF" d="M3.559,97.685H1.268v-8.396h2.291c2.254,0,4.089,1.235,4.089,4.198C7.648,96.449,5.753,97.685,3.559,97.685
		z M3.559,90.513H2.527v5.948h1.032c1.991,0,2.806-1.211,2.806-2.974C6.365,91.724,5.549,90.513,3.559,90.513z"/>
	<path fill="#FFFFFF" d="M14.189,94.974h-4.162c0.132,1.212,0.816,1.728,1.583,1.728c0.528,0,0.947-0.192,1.367-0.504l0.731,0.792
		c-0.552,0.527-1.211,0.827-2.171,0.827c-1.475,0-2.722-1.188-2.722-3.274c0-2.135,1.127-3.286,2.758-3.286
		c1.787,0,2.65,1.451,2.65,3.154C14.225,94.639,14.201,94.842,14.189,94.974z M11.49,92.371c-0.828,0-1.331,0.576-1.439,1.584h2.926
		C12.917,93.091,12.51,92.371,11.49,92.371z"/>
	<path fill="#FFFFFF" d="M17.562,97.816c-0.852,0-1.775-0.336-2.411-0.804l0.564-0.936c0.587,0.408,1.247,0.624,1.835,0.624
		c0.779,0,1.151-0.252,1.151-0.695c0-0.48-0.552-0.708-1.463-1.056c-1.355-0.528-1.847-0.983-1.847-1.979
		c0-1.127,0.887-1.715,2.146-1.715c0.792,0,1.571,0.288,2.135,0.696l-0.54,0.947c-0.516-0.36-1.031-0.54-1.631-0.54
		c-0.6,0-0.864,0.24-0.864,0.576c0,0.312,0.216,0.539,1.164,0.911c1.403,0.54,2.123,0.924,2.123,2.11
		C19.925,97.349,18.797,97.816,17.562,97.816z"/>
	<path fill="#FFFFFF" d="M22.075,90.572c-0.444,0-0.804-0.359-0.804-0.791c0-0.444,0.36-0.804,0.804-0.804
		c0.432,0,0.792,0.359,0.792,0.804C22.866,90.213,22.506,90.572,22.075,90.572z M21.451,97.685v-6.297h1.235v6.297H21.451z"/>
	<path fill="#FFFFFF" d="M26.49,99.999l-0.419-0.936c1.775-0.084,2.159-0.563,2.159-1.871v-0.107
		c-0.456,0.42-0.972,0.731-1.631,0.731c-1.343,0-2.422-0.983-2.422-3.382c0-2.159,1.188-3.179,2.482-3.179
		c0.636,0,1.235,0.336,1.571,0.72v-0.588h1.235v5.697C29.464,99.004,28.769,99.928,26.49,99.999z M28.253,93.223
		c-0.276-0.371-0.852-0.827-1.475-0.827c-0.888,0-1.367,0.672-1.367,2.003c0,1.583,0.503,2.278,1.415,2.278
		c0.588,0,1.104-0.396,1.427-0.803V93.223z"/>
	<path fill="#FFFFFF" d="M34.997,97.685v-3.562c0-1.271-0.479-1.727-1.295-1.727c-0.827,0-1.295,0.588-1.295,1.607v3.682h-1.235
		v-6.297h1.235v0.6c0.312-0.455,0.936-0.731,1.583-0.731c1.463,0,2.243,0.96,2.243,2.818v3.61H34.997z"/>
	<path fill="#FFFFFF" d="M44.345,97.816c-2.171,0-3.55-1.787-3.55-4.329c0-2.543,1.379-4.33,3.55-4.33
		c1.367,0,2.279,0.552,2.854,1.571l-1.115,0.695c-0.432-0.684-0.875-1.007-1.739-1.007c-1.463,0-2.255,1.187-2.255,3.07
		c0,1.883,0.792,3.07,2.255,3.07c0.875,0,1.415-0.36,1.847-1.044l1.043,0.695C46.636,97.241,45.617,97.816,44.345,97.816z"/>
	<path fill="#FFFFFF" d="M52.183,97.685v-0.624c-0.432,0.432-1.044,0.756-1.728,0.756c-1.02,0-2.183-0.575-2.183-2.123
		c0-1.403,1.079-2.039,2.507-2.039c0.588,0,1.056,0.084,1.403,0.24v-0.468c0-0.684-0.42-1.067-1.188-1.067
		c-0.648,0-1.152,0.12-1.644,0.396l-0.479-0.936c0.6-0.371,1.271-0.563,2.159-0.563c1.403,0,2.362,0.684,2.362,2.111v4.317H52.183z
		 M52.183,94.998c-0.336-0.168-0.768-0.275-1.439-0.275c-0.792,0-1.295,0.359-1.295,0.935c0,0.624,0.396,1.044,1.211,1.044
		c0.66,0,1.235-0.408,1.523-0.804V94.998z"/>
	<path fill="#FFFFFF" d="M62.368,97.685v-3.562c0-1.271-0.396-1.727-1.211-1.727c-0.828,0-1.212,0.588-1.212,1.607v3.682H58.71
		v-3.562c0-1.271-0.396-1.727-1.211-1.727c-0.827,0-1.211,0.588-1.211,1.607v3.682h-1.235v-6.297h1.235v0.6
		c0.312-0.455,0.852-0.731,1.499-0.731c0.852,0,1.391,0.324,1.727,0.924c0.456-0.563,0.947-0.924,1.932-0.924
		c1.463,0,2.158,0.96,2.158,2.818v3.61H62.368z"/>
	<path fill="#FFFFFF" d="M68.07,97.816c-0.635,0-1.235-0.336-1.583-0.72v2.267l-1.223,0.636v-8.611h1.223v0.6
		c0.456-0.419,0.983-0.731,1.644-0.731c1.355,0,2.423,0.983,2.423,3.383C70.554,96.797,69.378,97.816,68.07,97.816z M67.903,92.396
		c-0.588,0-1.104,0.396-1.428,0.804v2.65c0.276,0.372,0.852,0.827,1.476,0.827c0.887,0,1.367-0.671,1.367-2.003
		C69.318,93.091,68.814,92.396,67.903,92.396z"/>
	<path fill="#FFFFFF" d="M75.497,97.685v-0.624c-0.432,0.432-1.043,0.756-1.727,0.756c-1.02,0-2.183-0.575-2.183-2.123
		c0-1.403,1.079-2.039,2.506-2.039c0.588,0,1.056,0.084,1.403,0.24v-0.468c0-0.684-0.42-1.067-1.188-1.067
		c-0.647,0-1.151,0.12-1.643,0.396l-0.479-0.936c0.6-0.371,1.271-0.563,2.158-0.563c1.403,0,2.363,0.684,2.363,2.111v4.317H75.497z
		 M75.497,94.998c-0.336-0.168-0.768-0.275-1.438-0.275c-0.792,0-1.296,0.359-1.296,0.935c0,0.624,0.396,1.044,1.212,1.044
		c0.659,0,1.235-0.408,1.522-0.804V94.998z"/>
	<path fill="#FFFFFF" d="M79.051,90.572c-0.443,0-0.804-0.359-0.804-0.791c0-0.444,0.36-0.804,0.804-0.804
		c0.432,0,0.792,0.359,0.792,0.804C79.843,90.213,79.482,90.572,79.051,90.572z M78.428,97.685v-6.297h1.235v6.297H78.428z"/>
	<path fill="#FFFFFF" d="M83.467,99.999l-0.42-0.936c1.774-0.084,2.158-0.563,2.158-1.871v-0.107
		c-0.455,0.42-0.971,0.731-1.631,0.731c-1.343,0-2.423-0.983-2.423-3.382c0-2.159,1.188-3.179,2.483-3.179
		c0.636,0,1.235,0.336,1.57,0.72v-0.588h1.235v5.697C86.44,99.004,85.745,99.928,83.467,99.999z M85.229,93.223
		c-0.275-0.371-0.852-0.827-1.476-0.827c-0.887,0-1.367,0.672-1.367,2.003c0,1.583,0.504,2.278,1.416,2.278
		c0.587,0,1.103-0.396,1.427-0.803V93.223z"/>
	<path fill="#FFFFFF" d="M91.974,97.685v-3.562c0-1.271-0.479-1.727-1.295-1.727c-0.828,0-1.296,0.588-1.296,1.607v3.682h-1.235
		v-6.297h1.235v0.6c0.312-0.455,0.936-0.731,1.583-0.731c1.464,0,2.243,0.96,2.243,2.818v3.61H91.974z"/>
	<path fill="#FFFFFF" d="M96.906,97.816c-0.852,0-1.774-0.336-2.41-0.804l0.563-0.936c0.588,0.408,1.247,0.624,1.835,0.624
		c0.779,0,1.151-0.252,1.151-0.695c0-0.48-0.552-0.708-1.463-1.056c-1.355-0.528-1.848-0.983-1.848-1.979
		c0-1.127,0.888-1.715,2.147-1.715c0.791,0,1.57,0.288,2.135,0.696l-0.54,0.947c-0.516-0.36-1.031-0.54-1.631-0.54
		s-0.863,0.24-0.863,0.576c0,0.312,0.216,0.539,1.163,0.911c1.403,0.54,2.123,0.924,2.123,2.11
		C99.27,97.349,98.142,97.816,96.906,97.816z"/>
</g>
</svg>
