<?xml version="1.0" encoding="utf-8"?>
<!-- Generator: Adobe Illustrator 15.1.0, SVG Export Plug-In . SVG Version: 6.00 Build 0)  -->
<!DOCTYPE svg PUBLIC "-//W3C//DTD SVG 1.1//EN" "http://www.w3.org/Graphics/SVG/1.1/DTD/svg11.dtd">
<svg version="1.1" id="Layer_1" xmlns="http://www.w3.org/2000/svg" xmlns:xlink="http://www.w3.org/1999/xlink" x="0px" y="0px"
	 width="100px" height="100px" viewBox="0 0 100 100" enable-background="new 0 0 100 100" xml:space="preserve">
<g>
	<path d="M94.623,5.61H34.074C32.74,4.393,31.706,0,30.296,0H13.812c-1.41,0-2.418,4.393-3.767,5.61H5.878
		c-2.002,0-3.628,1.624-3.628,3.627v61.867c0,2.002,1.626,3.625,3.628,3.625h88.745c2.007,0,3.627-1.623,3.627-3.625V9.237
		C98.25,7.233,96.63,5.61,94.623,5.61z M90.188,69.492H9.876c-2.091,0-3.785-1.692-3.785-3.786V15.425
		c0-2.09,1.693-3.783,3.785-3.783h80.312c2.09,0,3.785,1.693,3.785,3.783v50.281h0.002C93.975,67.8,92.279,69.492,90.188,69.492z"/>
	<path d="M28.192,50.336V34.32H44.21c-0.001-8.847-7.172-16.019-16.018-16.019c-8.846,0-16.018,7.172-16.018,16.021
		C12.174,43.165,19.346,50.336,28.192,50.336z"/>
	<path d="M30.977,53.123c8.846,0,16.018-7.173,16.018-16.02H30.977V53.123z"/>
	<rect x="70.441" y="28.788" width="6.901" height="20.712"/>
	<rect x="80.797" y="21.884" width="6.904" height="27.616"/>
	<rect x="60.083" y="35.693" width="6.905" height="13.807"/>
	<rect x="13.25" y="59.748" width="75.25" height="3"/>
</g>
<g>
	<path fill="#FFFFFF" d="M5.436,97.816c-2.171,0-3.55-1.787-3.55-4.329c0-2.543,1.379-4.33,3.55-4.33
		c1.367,0,2.279,0.552,2.854,1.571l-1.115,0.695c-0.432-0.684-0.875-1.007-1.739-1.007c-1.463,0-2.255,1.187-2.255,3.07
		c0,1.883,0.792,3.07,2.255,3.07c0.875,0,1.416-0.36,1.847-1.044l1.043,0.695C7.727,97.241,6.707,97.816,5.436,97.816z"/>
	<path fill="#FFFFFF" d="M13.259,92.695c-0.264-0.144-0.54-0.228-0.947-0.228c-0.78,0-1.235,0.552-1.235,1.619v3.598H9.841v-6.297
		h1.235v0.6c0.288-0.419,0.815-0.731,1.439-0.731c0.504,0,0.815,0.096,1.067,0.264L13.259,92.695z"/>
	<path fill="#FFFFFF" d="M19.512,94.974H15.35c0.132,1.212,0.815,1.728,1.583,1.728c0.527,0,0.947-0.192,1.367-0.504l0.731,0.792
		c-0.552,0.527-1.211,0.827-2.171,0.827c-1.475,0-2.722-1.188-2.722-3.274c0-2.135,1.127-3.286,2.758-3.286
		c1.787,0,2.65,1.451,2.65,3.154C19.547,94.639,19.523,94.842,19.512,94.974z M16.813,92.371c-0.828,0-1.331,0.576-1.439,1.584H18.3
		C18.24,93.091,17.833,92.371,16.813,92.371z"/>
	<path fill="#FFFFFF" d="M24.491,97.685v-0.624c-0.432,0.432-1.043,0.756-1.727,0.756c-1.02,0-2.183-0.575-2.183-2.123
		c0-1.403,1.079-2.039,2.506-2.039c0.588,0,1.056,0.084,1.403,0.24v-0.468c0-0.684-0.42-1.067-1.188-1.067
		c-0.647,0-1.151,0.12-1.643,0.396l-0.479-0.936c0.6-0.371,1.271-0.563,2.159-0.563c1.403,0,2.363,0.684,2.363,2.111v4.317H24.491z
		 M24.491,94.998c-0.336-0.168-0.768-0.275-1.439-0.275c-0.792,0-1.295,0.359-1.295,0.935c0,0.624,0.396,1.044,1.211,1.044
		c0.66,0,1.235-0.408,1.523-0.804V94.998z"/>
	<path fill="#FFFFFF" d="M30.372,97.528c-0.3,0.168-0.72,0.288-1.211,0.288c-0.875,0-1.415-0.54-1.415-1.667v-3.634h-0.899v-1.128
		h0.899v-1.799l1.211-0.647v2.446h1.559v1.128h-1.559v3.418c0,0.588,0.192,0.756,0.647,0.756c0.324,0,0.684-0.12,0.912-0.252
		L30.372,97.528z"/>
	<path fill="#FFFFFF" d="M36.911,94.974h-4.162c0.132,1.212,0.816,1.728,1.583,1.728c0.528,0,0.947-0.192,1.367-0.504l0.731,0.792
		c-0.552,0.527-1.211,0.827-2.171,0.827c-1.475,0-2.722-1.188-2.722-3.274c0-2.135,1.127-3.286,2.758-3.286
		c1.787,0,2.65,1.451,2.65,3.154C36.946,94.639,36.922,94.842,36.911,94.974z M34.212,92.371c-0.828,0-1.331,0.576-1.439,1.584
		h2.926C35.639,93.091,35.231,92.371,34.212,92.371z"/>
	<path fill="#FFFFFF" d="M43.956,97.685h-2.291v-8.396h2.291c2.254,0,4.089,1.235,4.089,4.198
		C48.045,96.449,46.15,97.685,43.956,97.685z M43.956,90.513h-1.032v5.948h1.032c1.991,0,2.806-1.211,2.806-2.974
		C46.762,91.724,45.946,90.513,43.956,90.513z"/>
	<path fill="#FFFFFF" d="M53.123,97.685v-0.624c-0.432,0.432-1.044,0.756-1.728,0.756c-1.02,0-2.183-0.575-2.183-2.123
		c0-1.403,1.079-2.039,2.507-2.039c0.588,0,1.056,0.084,1.403,0.24v-0.468c0-0.684-0.42-1.067-1.188-1.067
		c-0.647,0-1.151,0.12-1.644,0.396l-0.479-0.936c0.6-0.371,1.271-0.563,2.159-0.563c1.403,0,2.362,0.684,2.362,2.111v4.317H53.123z
		 M53.123,94.998c-0.336-0.168-0.768-0.275-1.439-0.275c-0.792,0-1.295,0.359-1.295,0.935c0,0.624,0.396,1.044,1.211,1.044
		c0.66,0,1.235-0.408,1.523-0.804V94.998z"/>
	<path fill="#FFFFFF" d="M58.031,97.816c-0.852,0-1.774-0.336-2.41-0.804l0.563-0.936c0.588,0.408,1.247,0.624,1.835,0.624
		c0.779,0,1.151-0.252,1.151-0.695c0-0.48-0.552-0.708-1.463-1.056c-1.355-0.528-1.847-0.983-1.847-1.979
		c0-1.127,0.887-1.715,2.146-1.715c0.791,0,1.571,0.288,2.135,0.696l-0.54,0.947c-0.516-0.36-1.031-0.54-1.631-0.54
		s-0.863,0.24-0.863,0.576c0,0.312,0.216,0.539,1.163,0.911c1.403,0.54,2.123,0.924,2.123,2.11
		C60.395,97.349,59.267,97.816,58.031,97.816z"/>
	<path fill="#FFFFFF" d="M65.687,97.685v-3.562c0-1.271-0.479-1.727-1.296-1.727c-0.827,0-1.295,0.588-1.295,1.607v3.682H61.86
		v-8.096l1.235-0.647v3.046c0.312-0.455,0.936-0.731,1.583-0.731c1.464,0,2.243,0.96,2.243,2.818v3.61H65.687z"/>
	<path fill="#FFFFFF" d="M71.387,97.816c-0.635,0-1.235-0.336-1.583-0.72v0.588h-1.223v-8.107l1.223-0.636v3.046
		c0.456-0.419,0.983-0.731,1.644-0.731c1.355,0,2.423,0.983,2.423,3.383C73.87,96.797,72.694,97.816,71.387,97.816z M71.22,92.396
		c-0.588,0-1.104,0.396-1.428,0.804v2.65c0.276,0.372,0.852,0.827,1.476,0.827c0.887,0,1.367-0.671,1.367-2.003
		C72.635,93.091,72.131,92.396,71.22,92.396z"/>
	<path fill="#FFFFFF" d="M77.771,97.816c-1.584,0-2.771-1.308-2.771-3.274c0-2.062,1.223-3.286,2.806-3.286
		c1.607,0,2.807,1.283,2.807,3.25C80.613,96.593,79.391,97.816,77.771,97.816z M77.759,92.432c-0.936,0-1.511,0.827-1.511,2.074
		c0,1.38,0.636,2.136,1.571,2.136s1.547-0.948,1.547-2.1C79.366,93.259,78.755,92.432,77.759,92.432z"/>
	<path fill="#FFFFFF" d="M85.572,97.685v-0.624c-0.433,0.432-1.044,0.756-1.728,0.756c-1.02,0-2.183-0.575-2.183-2.123
		c0-1.403,1.079-2.039,2.507-2.039c0.587,0,1.055,0.084,1.403,0.24v-0.468c0-0.684-0.42-1.067-1.188-1.067
		c-0.647,0-1.151,0.12-1.644,0.396l-0.479-0.936c0.6-0.371,1.271-0.563,2.159-0.563c1.402,0,2.362,0.684,2.362,2.111v4.317H85.572z
		 M85.572,94.998c-0.336-0.168-0.768-0.275-1.439-0.275c-0.792,0-1.296,0.359-1.296,0.935c0,0.624,0.396,1.044,1.212,1.044
		c0.659,0,1.235-0.408,1.523-0.804V94.998z"/>
	<path fill="#FFFFFF" d="M91.86,92.695c-0.265-0.144-0.54-0.228-0.948-0.228c-0.779,0-1.235,0.552-1.235,1.619v3.598h-1.235v-6.297
		h1.235v0.6c0.288-0.419,0.815-0.731,1.439-0.731c0.504,0,0.815,0.096,1.067,0.264L91.86,92.695z"/>
	<path fill="#FFFFFF" d="M96.791,97.685v-0.6c-0.455,0.42-0.983,0.731-1.643,0.731c-1.355,0-2.423-0.983-2.423-3.382
		c0-2.159,1.175-3.179,2.482-3.179c0.636,0,1.235,0.336,1.583,0.72v-2.398l1.224-0.636v8.743H96.791z M96.804,93.223
		c-0.276-0.371-0.852-0.827-1.476-0.827c-0.888,0-1.367,0.672-1.367,2.003c0,1.583,0.504,2.278,1.415,2.278
		c0.588,0,1.104-0.396,1.428-0.803V93.223z"/>
</g>
</svg>
