<?xml version="1.0" encoding="utf-8"?>
<!-- Generator: Adobe Illustrator 15.1.0, SVG Export Plug-In . SVG Version: 6.00 Build 0)  -->
<!DOCTYPE svg PUBLIC "-//W3C//DTD SVG 1.1//EN" "http://www.w3.org/Graphics/SVG/1.1/DTD/svg11.dtd">
<svg version="1.1" id="Layer_1" xmlns:sketch="http://www.bohemiancoding.com/sketch/ns"
	 xmlns="http://www.w3.org/2000/svg" xmlns:xlink="http://www.w3.org/1999/xlink" x="0px" y="0px" width="100.08px"
	 height="100.08px" viewBox="0 0 100.08 100.08" enable-background="new 0 0 100.08 100.08" xml:space="preserve">
<title>other_arrow_right</title>
<description>Created with Sketch (http://www.bohemiancoding.com/sketch)</description>
<g id="iOS7-active" sketch:type="MSPage">
	<path id="other_arrow_right" sketch:type="MSShapeGroup" d="M56.043,68.565V48.091c0,0-51.945,0.318-52.739-47.09
		c26.258,43.703,52.743,28.664,52.743,28.664L56.043,9.19L96.58,38.878L56.043,68.565L56.043,68.565z"/>
</g>
<g>
	<path fill="#FFFFFF" d="M35.808,97.816c-2.171,0-3.55-1.787-3.55-4.329c0-2.543,1.379-4.33,3.55-4.33
		c2.184,0,3.562,1.787,3.562,4.33C39.37,96.029,37.991,97.816,35.808,97.816z M35.808,90.417c-1.463,0-2.267,1.187-2.267,3.07
		c0,1.883,0.804,3.07,2.267,3.07c1.476,0,2.279-1.188,2.279-3.07C38.087,91.604,37.283,90.417,35.808,90.417z"/>
	<path fill="#FFFFFF" d="M43.872,97.528c-0.3,0.168-0.72,0.288-1.211,0.288c-0.876,0-1.415-0.54-1.415-1.667v-3.634h-0.899v-1.128
		h0.899v-1.799l1.211-0.647v2.446h1.56v1.128h-1.56v3.418c0,0.588,0.192,0.756,0.647,0.756c0.324,0,0.684-0.12,0.912-0.252
		L43.872,97.528z"/>
	<path fill="#FFFFFF" d="M49.403,97.685v-3.562c0-1.271-0.479-1.727-1.295-1.727c-0.827,0-1.295,0.588-1.295,1.607v3.682h-1.235
		v-8.096l1.235-0.647v3.046c0.312-0.455,0.936-0.731,1.583-0.731c1.463,0,2.242,0.96,2.242,2.818v3.61H49.403z"/>
	<path fill="#FFFFFF" d="M57.371,94.974h-4.162c0.132,1.212,0.815,1.728,1.583,1.728c0.528,0,0.947-0.192,1.367-0.504l0.731,0.792
		c-0.552,0.527-1.211,0.827-2.171,0.827c-1.475,0-2.722-1.188-2.722-3.274c0-2.135,1.127-3.286,2.758-3.286
		c1.787,0,2.65,1.451,2.65,3.154C57.406,94.639,57.383,94.842,57.371,94.974z M54.672,92.371c-0.827,0-1.331,0.576-1.438,1.584
		h2.926C56.1,93.091,55.691,92.371,54.672,92.371z"/>
	<path fill="#FFFFFF" d="M62.243,92.695c-0.264-0.144-0.539-0.228-0.947-0.228c-0.779,0-1.235,0.552-1.235,1.619v3.598h-1.235
		v-6.297h1.235v0.6c0.288-0.419,0.815-0.731,1.439-0.731c0.504,0,0.815,0.096,1.067,0.264L62.243,92.695z"/>
	<path fill="#FFFFFF" d="M65.52,97.816c-0.852,0-1.774-0.336-2.41-0.804l0.563-0.936c0.588,0.408,1.247,0.624,1.835,0.624
		c0.779,0,1.151-0.252,1.151-0.695c0-0.48-0.552-0.708-1.463-1.056c-1.355-0.528-1.847-0.983-1.847-1.979
		c0-1.127,0.887-1.715,2.146-1.715c0.791,0,1.571,0.288,2.135,0.696l-0.54,0.947c-0.516-0.36-1.031-0.54-1.631-0.54
		s-0.863,0.24-0.863,0.576c0,0.312,0.216,0.539,1.163,0.911c1.403,0.54,2.123,0.924,2.123,2.11
		C67.883,97.349,66.755,97.816,65.52,97.816z"/>
</g>
</svg>
