<?xml version="1.0" encoding="utf-8"?>
<!-- Generator: Adobe Illustrator 15.1.0, SVG Export Plug-In . SVG Version: 6.00 Build 0)  -->
<!DOCTYPE svg PUBLIC "-//W3C//DTD SVG 1.1//EN" "http://www.w3.org/Graphics/SVG/1.1/DTD/svg11.dtd">
<svg version="1.1" id="Layer_1" xmlns="http://www.w3.org/2000/svg" xmlns:xlink="http://www.w3.org/1999/xlink" x="0px" y="0px"
	 width="100.08px" height="100.08px" viewBox="0 0 100.08 100.08" enable-background="new 0 0 100.08 100.08" xml:space="preserve">
<g id="Layer_1_1_">
</g>
<g id="Layer_2">
</g>
<g id="Foreground">
	<path d="M82.665,56.836L67.979,42.85c-0.358-0.341-0.757-0.604-1.172-0.833c2.466-4.153,3.885-8.999,3.885-14.171
		C70.692,12.493,58.201,0,42.846,0S14.999,12.493,14.999,27.846c0,15.358,12.493,27.85,27.848,27.85
		c6.259,0,12.046-2.077,16.701-5.579c0.208,0.297,0.445,0.575,0.717,0.834L74.95,64.935c1.081,1.032,2.474,1.544,3.857,1.544
		c1.477,0,2.952-0.584,4.053-1.734C84.99,62.509,84.902,58.969,82.665,56.836z M20.594,27.846c0-12.27,9.981-22.25,22.252-22.25
		c12.269,0,22.253,9.98,22.253,22.25c0,12.272-9.984,22.257-22.253,22.257C30.576,50.103,20.594,40.119,20.594,27.846z"/>
	<polygon points="35.499,43.611 52.006,43.611 52.006,36.585 48.127,36.585 48.127,21.255 35.499,21.255 35.499,28.281 
		39.772,28.281 39.772,36.585 35.499,36.585 	"/>
	<path d="M42.574,9.874c-3.782,0-5.651,1.868-5.651,4.127c0,2.652,1.672,4.175,5.651,4.175c4.176,0,5.601-1.915,5.601-4.175
		C48.177,11.593,46.358,9.874,42.574,9.874z"/>
</g>
<g>
	<path fill="#FFFFFF" d="M27.701,97.684l-2.411-4.306l-1.559,1.883v2.423h-1.224v-8.396h1.224v2.879
		c0,0.312-0.012,1.223-0.024,1.486c0.144-0.216,0.696-0.911,0.972-1.259l2.483-3.106h1.427l-2.458,3.047l2.998,5.349H27.701z"/>
	<path fill="#FFFFFF" d="M34.038,94.554h-2.195v3.13h-1.235v-8.396h3.515c1.547,0,2.698,0.888,2.698,2.627
		C36.82,93.642,35.669,94.554,34.038,94.554z M34.097,90.476h-2.255v2.891h2.255c0.96,0,1.439-0.552,1.439-1.451
		C35.537,90.992,34.973,90.476,34.097,90.476z"/>
	<path fill="#FFFFFF" d="M38.384,97.684v-8.396h1.259v8.396H38.384z"/>
	<path fill="#FFFFFF" d="M46.146,90.524v2.195h2.411v1.235h-2.411v3.729h-1.259v-8.396h5.409v1.235H46.146z"/>
	<path fill="#FFFFFF" d="M52.255,90.572c-0.443,0-0.804-0.359-0.804-0.791c0-0.444,0.36-0.804,0.804-0.804
		c0.432,0,0.792,0.359,0.792,0.804C53.047,90.213,52.686,90.572,52.255,90.572z M51.632,97.684v-6.297h1.235v6.297H51.632z"/>
	<path fill="#FFFFFF" d="M58.457,97.684v-3.562c0-1.271-0.479-1.727-1.295-1.727c-0.827,0-1.295,0.588-1.295,1.607v3.682h-1.235
		v-6.297h1.235v0.6c0.312-0.455,0.936-0.731,1.583-0.731c1.463,0,2.242,0.96,2.242,2.818v3.61H58.457z"/>
	<path fill="#FFFFFF" d="M65.141,97.684v-0.6c-0.456,0.42-0.984,0.731-1.644,0.731c-1.355,0-2.423-0.983-2.423-3.382
		c0-2.159,1.176-3.179,2.482-3.179c0.636,0,1.235,0.336,1.584,0.72v-2.398l1.223-0.636v8.743H65.141z M65.153,93.222
		c-0.276-0.371-0.852-0.827-1.476-0.827c-0.888,0-1.367,0.672-1.367,2.003c0,1.583,0.504,2.278,1.415,2.278
		c0.588,0,1.104-0.396,1.428-0.803V93.222z"/>
	<path fill="#FFFFFF" d="M73.144,94.973h-4.161c0.132,1.212,0.815,1.728,1.583,1.728c0.527,0,0.947-0.192,1.367-0.504l0.731,0.792
		c-0.552,0.527-1.212,0.827-2.171,0.827c-1.476,0-2.723-1.188-2.723-3.274c0-2.135,1.128-3.286,2.759-3.286
		c1.787,0,2.65,1.451,2.65,3.154C73.18,94.638,73.156,94.842,73.144,94.973z M70.446,92.371c-0.828,0-1.331,0.576-1.439,1.584h2.927
		C71.873,93.091,71.466,92.371,70.446,92.371z"/>
	<path fill="#FFFFFF" d="M78.017,92.695c-0.264-0.144-0.54-0.228-0.947-0.228c-0.78,0-1.235,0.552-1.235,1.619v3.598h-1.235v-6.297
		h1.235v0.6c0.287-0.419,0.815-0.731,1.438-0.731c0.504,0,0.815,0.096,1.067,0.264L78.017,92.695z"/>
</g>
</svg>
