<?xml version="1.0" encoding="utf-8"?>
<!-- Generator: Adobe Illustrator 15.1.0, SVG Export Plug-In . SVG Version: 6.00 Build 0)  -->
<!DOCTYPE svg PUBLIC "-//W3C//DTD SVG 1.1//EN" "http://www.w3.org/Graphics/SVG/1.1/DTD/svg11.dtd">
<svg version="1.1" id="Layer_1" xmlns="http://www.w3.org/2000/svg" xmlns:xlink="http://www.w3.org/1999/xlink" x="0px" y="0px"
	 width="100px" height="100px" viewBox="0 0 100 100" enable-background="new 0 0 100 100" xml:space="preserve">
<g>
	<path d="M65.494,44.567c-0.103-1.6-0.413-3.196-1.389-4.794c-0.424-0.685-1.028-1.312-1.765-1.759
		c-1.128-0.691-2.064-1.231-3.273-1.028c-0.163-0.383-0.354-0.764-0.587-1.143c-0.422-0.688-1.021-1.312-1.757-1.765
		c-1.845-1.123-2.856-0.979-4.522,0.178c-0.103-0.202-0.187-0.404-0.31-0.607c-0.424-0.688-0.52-1.218-1.761-1.759
		c-1.241-0.543-4.182-0.517-4.775,1.979l-0.061,0.035l-0.904-19.279c-0.06-1.537-1.298-2.805-2.862-2.864
		c-1.648-0.064-3.035,1.218-3.098,2.864l-1.079,21.32l-0.044,0.025c-0.042,1.601-0.048,4.255-0.02,5.151
		c0.028,0.897,0.028,1.53,0.028,1.53c-3.838,0-2.717,7.982-2.717,7.982c0,2.299,2.263,7.158,4.557,7.824v0.006
		c1.106,0.549,2.729,6.904,2.98,10.545l0.74,5.145h17.499v-4.795c0.318-3.467,2.951-10.168,3.655-12.678
		c0.02-0.072,0.056-0.137,0.076-0.209c0.408-1.596,0.682-1.955,0.877-3.551c0.199-1.6,0.34-1.953,0.426-3.551
		C65.488,47.766,65.536,46.169,65.494,44.567z"/>
</g>
<g>
	<path d="M35.738,8.466c-0.303,0-0.605-0.116-0.836-0.346l-2.469-2.468c-0.461-0.461-0.461-1.21,0-1.672
		c0.462-0.46,1.209-0.461,1.671,0l2.469,2.469c0.461,0.461,0.461,1.209,0,1.672C36.342,8.351,36.041,8.466,35.738,8.466z"/>
</g>
<g>
	<path d="M47.77,8.466c-0.303,0-0.605-0.116-0.835-0.346c-0.461-0.462-0.461-1.211,0-1.672l2.469-2.469
		c0.462-0.461,1.21-0.461,1.672,0c0.461,0.462,0.461,1.211,0,1.672l-2.469,2.468C48.375,8.351,48.072,8.466,47.77,8.466z"/>
</g>
<g>
	<path d="M41.443,7.232c-0.654,0-1.183-0.529-1.183-1.182V1.182C40.261,0.529,40.79,0,41.443,0c0.653,0,1.182,0.529,1.182,1.182
		v4.869C42.625,6.704,42.096,7.232,41.443,7.232z"/>
</g>
<g>
	<path fill="#FFFFFF" d="M29.665,97.685v-8.396h1.259v8.396H29.665z"/>
	<path fill="#FFFFFF" d="M36.695,97.685v-3.562c0-1.271-0.479-1.727-1.295-1.727c-0.827,0-1.295,0.588-1.295,1.607v3.682h-1.235
		v-6.297h1.235v0.6c0.312-0.455,0.936-0.731,1.583-0.731c1.463,0,2.243,0.96,2.243,2.818v3.61H36.695z"/>
	<path fill="#FFFFFF" d="M41.628,97.816c-0.852,0-1.775-0.336-2.411-0.804l0.564-0.936c0.587,0.408,1.247,0.624,1.835,0.624
		c0.779,0,1.151-0.252,1.151-0.695c0-0.48-0.552-0.708-1.463-1.056c-1.355-0.528-1.847-0.983-1.847-1.979
		c0-1.127,0.887-1.715,2.146-1.715c0.792,0,1.571,0.288,2.135,0.696l-0.54,0.947c-0.516-0.36-1.031-0.54-1.631-0.54
		c-0.6,0-0.864,0.24-0.864,0.576c0,0.312,0.216,0.539,1.164,0.911c1.403,0.54,2.123,0.924,2.123,2.11
		C43.991,97.349,42.863,97.816,41.628,97.816z"/>
	<path fill="#FFFFFF" d="M46.141,90.572c-0.444,0-0.804-0.359-0.804-0.791c0-0.444,0.36-0.804,0.804-0.804
		c0.432,0,0.792,0.359,0.792,0.804C46.932,90.213,46.572,90.572,46.141,90.572z M45.517,97.685v-6.297h1.235v6.297H45.517z"/>
	<path fill="#FFFFFF" d="M50.556,99.999l-0.419-0.936c1.775-0.084,2.159-0.563,2.159-1.871v-0.107
		c-0.455,0.42-0.972,0.731-1.631,0.731c-1.344,0-2.423-0.983-2.423-3.382c0-2.159,1.187-3.179,2.482-3.179
		c0.636,0,1.235,0.336,1.571,0.72v-0.588h1.235v5.697C53.53,99.004,52.835,99.928,50.556,99.999z M52.319,93.223
		c-0.276-0.371-0.852-0.827-1.476-0.827c-0.888,0-1.367,0.672-1.367,2.003c0,1.583,0.503,2.278,1.415,2.278
		c0.588,0,1.104-0.396,1.428-0.803V93.223z"/>
	<path fill="#FFFFFF" d="M59.062,97.685v-3.562c0-1.271-0.479-1.727-1.295-1.727c-0.827,0-1.295,0.588-1.295,1.607v3.682h-1.235
		v-8.096l1.235-0.647v3.046c0.312-0.455,0.936-0.731,1.583-0.731c1.463,0,2.242,0.96,2.242,2.818v3.61H59.062z"/>
	<path fill="#FFFFFF" d="M64.909,97.528c-0.3,0.168-0.72,0.288-1.212,0.288c-0.875,0-1.415-0.54-1.415-1.667v-3.634h-0.899v-1.128
		h0.899v-1.799l1.212-0.647v2.446h1.559v1.128h-1.559v3.418c0,0.588,0.191,0.756,0.647,0.756c0.323,0,0.684-0.12,0.911-0.252
		L64.909,97.528z"/>
	<path fill="#FFFFFF" d="M68.568,97.816c-0.852,0-1.775-0.336-2.411-0.804l0.564-0.936c0.587,0.408,1.247,0.624,1.835,0.624
		c0.779,0,1.151-0.252,1.151-0.695c0-0.48-0.552-0.708-1.464-1.056c-1.354-0.528-1.847-0.983-1.847-1.979
		c0-1.127,0.888-1.715,2.146-1.715c0.792,0,1.571,0.288,2.135,0.696l-0.539,0.947c-0.516-0.36-1.031-0.54-1.631-0.54
		c-0.601,0-0.864,0.24-0.864,0.576c0,0.312,0.216,0.539,1.164,0.911c1.402,0.54,2.122,0.924,2.122,2.11
		C70.931,97.349,69.804,97.816,68.568,97.816z"/>
</g>
</svg>
